<?xml version="1.0" encoding="utf-8"?><!DOCTYPE svg PUBLIC "-//W3C//DTD SVG 1.1//EN" "http://www.w3.org/Graphics/SVG/1.1/DTD/svg11.dtd"><svg version="1.1" id="Contours" xmlns="http://www.w3.org/2000/svg" xmlns:xlink="http://www.w3.org/1999/xlink" x="0px" y="0px" width="1779.297974px" height="1779.297974px" viewBox="-0.000001 -0.000013 1779.297974 741.733215" enable-background="new 0 0 1779.297974 1779.297974" xml:space="preserve" stroke="black" fill="none" stroke-linecap='round' stroke-linejoin='round'><path class="selected"  fill="#000000" opacity="1.000000" stroke="none" 
 	d="
M1074.302362 498.422578 C1062.438076 499.630875 1048.683957 502.174843 1043.221689 512.776016 C998.028347 600.487534 922.623430 672.270972 832.795491 713.096074 C785.581768 734.553820 732.858878 747.709708 681.729962 739.026129 C652.385347 734.042329 621.377559 718.854487 611.925038 690.630480 C601.127488 658.390392 622.953085 624.173771 648.559472 601.805863 C691.625678 564.186305 746.663845 543.702996 800.656027 524.867565 C822.129581 382.397558 895.266315 253.739225 967.060851 128.821809 C972.684010 119.037910 959.971131 107.012342 948.815659 108.715291 C937.660186 110.418239 929.575240 119.897599 922.555775 128.733419 C899.252470 158.066693 875.949163 187.399962 852.645857 216.733232 C847.074608 223.746098 842.184978 235.557061 849.893337 240.117796 C845.845658 244.255128 838.119250 239.890824 837.158219 234.183142 C836.197188 228.475460 839.456099 222.993557 842.624588 218.149809 C865.796828 182.725821 891.429709 148.911748 919.277342 117.031959 C927.958363 107.093975 937.833578 96.778789 950.820977 94.444029 C963.808376 92.109269 979.493630 102.605819 977.006028 115.564811 C999.085926 78.496043 1025.990773 44.304979 1056.827320 14.126778 C1065.569069 5.571660 1077.547309 -3.292280 1088.917765 1.215598 C1102.614787 6.645858 1102.798153 25.806640 1099.834413 40.239670 C1077.765833 147.710706 1015.063366 242.054048 948.872406 329.551491 C971.453857 318.381675 998.283204 312.094744 1021.803128 321.122474 C1049.732436 331.842666 1066.287829 362.091324 1069.460459 391.838647 C1072.633089 421.585970 1064.880804 451.294225 1057.196720 480.206569 C1203.038437 469.242513 1348.880154 458.278456 1494.721871 447.314399 C1358.030132 483.358039 1214.938882 484.099708 1074.302362 498.422578 M627.966486 694.510719 C634.498197 706.209221 646.784779 713.574125 659.310719 718.330071 C681.096822 726.601989 704.897522 728.512280 728.144177 726.883820 C775.271845 723.582464 820.563494 706.120574 861.379602 682.330631 C933.687061 640.185744 993.823652 577.424172 1032.842682 503.383133 C971.731616 510.180021 910.969479 520.113123 850.875274 533.130290 C844.270372 534.560996 837.587512 536.059482 831.586121 539.166723 C828.496743 540.766259 825.599800 542.786447 822.311279 543.921525 C818.084079 545.380601 813.507619 545.281388 809.046175 545.587399 C797.330635 546.390960 786.023105 550.070237 774.921931 553.899536 C730.215592 569.320781 685.426764 588.344333 651.129835 620.904926 C641.067682 630.457665 631.866645 641.342066 626.785465 654.252657 C621.704285 667.163248 621.202698 682.396556 627.966487 694.510718 M1028.862658 340.648374 C1017.350439 332.686156 1002.364287 331.059187 988.561319 333.384304 C974.758351 335.709421 961.849482 341.629963 949.272874 347.774639 C932.948582 355.750356 915.580896 365.580616 909.013594 382.520661 C891.431756 427.872208 870.762183 472.026408 847.195397 514.576267 C909.191466 500.571109 971.983287 490.089273 1035.166909 483.198189 C1041.254362 482.534265 1044.081191 475.455553 1045.610644 469.526079 C1054.758937 434.059332 1062.448982 394.930948 1046.299538 362.055779 C1042.197216 353.704745 1036.514947 345.940943 1028.862657 340.648375 M927.520906 334.432714 C954.655017 303.363149 978.579070 269.609534 1000.834494 234.878079 C1035.008323 181.546956 1065.623776 125.109807 1082.108431 63.951688 C1085.931205 49.769183 1088.998817 35.046388 1087.222485 20.465520 C1087.020151 18.804675 1086.694219 17.027442 1085.497075 15.858599 C1082.745448 13.172025 1078.211227 15.632065 1075.311419 18.157980 C1041.276523 47.804565 1015.688548 85.732128 990.508120 123.191973 C984.517784 132.103539 978.372107 141.402466 976.768683 152.019865 C967.343652 214.429657 950.785857 275.759421 927.520906 334.432714 M890.862843 397.768825 C885.673383 396.155236 881.983999 403.626073 876.617190 404.481370 C871.269946 405.333556 867.197788 398.742221 868.325465 393.446223 C869.453141 388.150225 873.775741 384.219269 877.865113 380.670144 C886.278166 373.368539 894.691220 366.066935 903.104275 358.765331 C906.930000 355.445022 908.838866 350.489677 910.601852 345.740729 C932.047905 287.971571 952.853806 229.448533 961.824632 168.483518 C909.340255 259.529460 858.538095 352.637927 828.386016 453.309797 C821.773476 475.387768 816.130220 498.186442 817.300795 521.203658 C827.446973 522.494856 834.588624 511.815485 839.114469 502.643307 C856.363925 467.685145 873.613384 432.726985 890.862843 397.768825 z"/><path class="selected"  fill="#000000" opacity="1.000000" stroke="none" 
 	d="
M1441.794339 409.892391 C1432.121743 425.037972 1410.499021 431.100734 1394.362209 423.191814 C1390.270318 421.186308 1385.489946 418.385307 1381.542536 420.662052 C1367.183997 428.943623 1346.677282 423.811983 1337.911597 409.743763 C1331.022099 412.060280 1326.457237 418.391983 1321.189924 423.400661 C1315.922611 428.409338 1307.951922 432.399690 1301.604034 428.859102 C1291.156001 423.031624 1297.612712 406.712561 1293.695680 395.408679 C1289.500511 404.034108 1285.193352 412.821351 1278.493020 419.684516 C1271.792688 426.547682 1262.163789 431.279575 1252.702084 429.706800 C1244.248516 428.301603 1235.995277 433.135115 1227.432956 433.487311 C1218.870634 433.839506 1209.051798 424.342118 1214.593238 417.805312 C1204.916083 419.186991 1200.140208 431.198830 1190.851554 434.244691 C1179.068173 438.108604 1167.632913 424.299929 1168.745615 411.949229 C1169.858317 399.598529 1178.751509 389.550368 1187.195421 380.468614 C1181.317525 378.176818 1174.587105 382.139468 1171.210226 387.468509 C1167.833347 392.797550 1166.798074 399.220939 1164.946852 405.252105 C1162.173097 414.288837 1157.418797 422.711961 1151.115677 429.756597 C1144.141062 437.551723 1130.020324 442.851973 1124.512308 433.959785 C1121.878566 441.035249 1111.114898 441.771230 1105.474815 436.752441 C1099.834731 431.733651 1098.370821 423.518881 1098.357538 415.969139 C1098.309226 388.508849 1114.064333 361.572393 1138.022767 348.153626 C1142.179585 345.825453 1147.994780 344.120603 1151.214437 347.632487 C1137.229275 356.280881 1124.825566 368.095296 1117.691603 382.910357 C1110.557640 397.725418 1109.197323 415.736722 1116.231772 430.599292 C1119.505683 414.596549 1122.779594 398.593806 1126.053504 382.591063 C1127.541537 375.317619 1140.063916 377.922846 1142.066759 385.071682 C1144.069601 392.220517 1139.960733 399.448091 1137.030698 406.269537 C1134.100662 413.090982 1132.812991 422.272209 1138.643226 426.868466 C1155.184486 417.849599 1163.825409 396.480841 1158.202333 378.499343 C1156.747173 373.846026 1164.779617 374.113686 1169.634479 374.562199 C1175.345016 375.089764 1180.609789 371.771717 1185.489952 368.759647 C1190.370115 365.747577 1196.004837 362.805458 1201.580086 364.149020 C1207.155335 365.492582 1210.826114 373.538757 1206.370851 377.149740 C1193.309638 387.735829 1185.330512 404.331541 1185.218807 421.143682 C1203.943729 411.477480 1220.642111 397.907385 1233.933583 381.555169 C1237.462929 377.213089 1240.985028 372.493445 1246.117517 370.264653 C1251.250005 368.035862 1258.515551 369.584123 1260.307555 374.884941 C1245.484435 386.737118 1234.340486 403.126871 1228.769064 421.269586 C1235.165942 420.834305 1240.071947 415.231202 1242.614990 409.345419 C1245.158033 403.459635 1246.103490 396.966198 1248.810024 391.153781 C1251.516558 385.341364 1256.810173 379.976123 1263.221032 380.078116 C1269.631892 380.180108 1275.075853 388.560041 1270.852958 393.384632 C1264.801100 400.298787 1260.531975 408.760423 1258.566816 417.736428 C1296.078436 391.737734 1305.325505 341.291273 1327.960695 301.659191 C1274.376276 309.944055 1220.791858 318.228919 1167.207440 326.513782 C1185.670650 317.285442 1205.749626 311.808218 1225.779159 306.821216 C1349.633159 275.983747 1476.946456 261.789867 1603.905736 248.671034 C1643.335570 244.596708 1682.928208 240.613007 1722.539610 242.112574 C1739.756587 242.764356 1758.702583 245.301790 1770.115354 258.209066 C1786.520833 276.762845 1778.585035 306.381439 1764.732933 326.911945 C1748.381505 351.146759 1724.977388 370.562199 1698.139440 382.156160 C1688.652859 386.254351 1678.114804 389.428212 1668.076754 386.973026 C1657.140426 384.298132 1647.047589 392.733902 1637.412390 398.558099 C1624.601239 406.302077 1609.797911 409.944657 1595.252326 413.483124 C1580.713891 417.019852 1561.534407 418.638402 1554.565840 405.397798 C1546.757718 410.833114 1537.312553 415.124312 1527.956140 413.401822 C1518.599727 411.679332 1510.470988 401.740863 1513.655772 392.776122 C1506.557391 399.951834 1499.459009 407.127546 1492.360628 414.303258 C1486.165494 420.565883 1474.432638 414.736298 1472.018686 406.264403 C1469.604734 397.792509 1473.245795 388.901965 1476.814429 380.848083 C1470.259993 374.895288 1459.206949 379.222925 1453.890364 386.303203 C1448.573779 393.383481 1446.560018 402.430172 1441.794335 409.892389 M1336.184125 393.004957 C1339.580803 390.158141 1344.172589 387.152255 1348.083008 389.238018 C1352.864451 391.788373 1351.601097 398.905257 1353.546134 403.963255 C1356.472986 411.574432 1367.166073 413.460803 1374.449198 409.793030 C1381.732323 406.125257 1386.329769 398.801998 1390.509159 391.799915 C1394.688549 384.797832 1399.158270 377.430748 1406.334873 373.558688 C1409.111186 372.060758 1412.471998 371.163921 1415.416348 372.296401 C1421.578297 374.666460 1421.520140 383.897098 1417.725228 389.299453 C1413.930317 394.701808 1407.854762 398.174819 1404.075434 403.588088 C1403.141828 404.925327 1402.334287 406.476526 1402.462023 408.102414 C1402.829465 412.779386 1409.539600 413.422540 1413.996475 411.957840 C1422.959675 409.012188 1430.951883 403.187186 1436.500294 395.556265 C1440.311731 390.314265 1441.814746 381.056808 1435.702001 378.902753 C1431.865880 377.550953 1433.830049 371.075905 1437.728217 369.915104 C1441.626385 368.754304 1445.719507 370.528899 1449.757086 371.019942 C1456.124522 371.794337 1462.382964 369.344931 1468.705172 368.261601 C1475.027381 367.178270 1482.587706 367.998442 1486.160941 373.325347 C1491.333577 381.036605 1484.645669 392.244336 1488.862155 400.517238 C1497.278480 391.419034 1505.694806 382.320830 1514.111131 373.222626 C1515.950794 371.233917 1517.924212 369.160255 1520.526706 368.407692 C1525.852413 366.867658 1531.263620 371.878848 1532.289185 377.327066 C1533.314750 382.775284 1531.277832 388.282810 1529.276444 393.452849 C1528.192204 396.253688 1530.970083 399.351020 1533.952205 399.707699 C1536.934327 400.064378 1539.799341 398.553997 1542.340839 396.953665 C1554.855952 389.073139 1565.148094 377.702928 1571.747081 364.467214 C1573.999137 359.950221 1581.317390 360.097471 1584.461466 364.045858 C1587.605543 367.994245 1587.046997 373.932411 1584.488953 378.283433 C1581.930909 382.634454 1577.767067 385.759886 1573.712607 388.765936 C1569.405109 391.959594 1571.491873 399.714690 1576.476663 401.691016 C1581.461453 403.667342 1587.297077 401.054549 1590.800021 396.994576 C1594.302964 392.934604 1596.047927 387.698838 1597.963322 382.690319 C1599.878717 377.681801 1602.202097 372.552353 1606.430434 369.254602 C1609.679776 366.720383 1614.506327 365.577594 1617.897132 367.919160 C1621.957384 370.723018 1621.905957 376.814990 1620.239562 381.459382 C1618.573168 386.103774 1615.719321 390.483987 1615.579728 395.416305 C1626.690070 393.300663 1637.120163 387.743425 1645.073180 379.701961 C1649.068285 375.662425 1653.149884 370.660169 1658.825357 370.399933 C1662.189083 370.245697 1665.344358 371.858092 1668.591603 372.749071 C1678.231179 375.393981 1688.404325 371.621185 1697.368246 367.197939 C1723.652272 354.228089 1747.502595 334.102339 1759.136557 307.200333 C1764.558065 294.663810 1766.377474 278.175493 1756.288946 268.967955 C1750.378380 263.573534 1741.912280 262.199738 1733.942094 261.485103 C1707.584731 259.121808 1681.053271 261.363865 1654.699079 263.762258 C1555.435706 272.795835 1456.374779 284.053872 1357.615731 297.525069 C1354.435393 297.958882 1351.128543 298.442041 1348.472869 300.244855 C1345.932249 301.969564 1344.286958 304.701877 1342.774268 307.374167 C1324.480933 339.690854 1313.812977 376.291657 1311.878059 413.376295 C1319.980081 406.585849 1328.082103 399.795403 1336.184125 393.004957 z"/><path class="selected"  fill="#000000" opacity="1.000000" stroke="none" 
 	d="
M245.686877 164.738374 C223.788949 244.481671 184.416774 319.377116 131.143983 382.626799 C146.503774 384.829174 159.747094 395.024011 169.305255 407.247563 C178.863416 419.471115 185.339078 433.754216 192.386981 447.578135 C214.396386 490.747904 243.640506 531.488566 283.823788 558.568942 C324.007070 585.649318 376.399194 597.441318 422.115691 581.377546 C426.536225 579.824268 431.126548 577.995575 435.758620 578.701045 C403.246379 601.862378 359.436972 605.878514 321.164499 594.533441 C282.892025 583.188369 249.870902 557.846066 223.905756 527.526039 C197.940610 497.206011 178.449061 461.943473 160.496152 426.289779 C153.627224 412.648388 143.238035 396.693780 128.037663 398.183216 C112.354918 399.719919 105.497270 418.320420 101.615659 433.592715 C88.366667 485.721282 69.620746 536.450945 45.789099 584.668944 C40.130976 596.116884 28.925920 609.435118 17.361337 604.019389 C9.911475 600.530595 7.768226 591.092305 6.946401 582.907153 C1.642202 530.078770 13.636863 477.085555 28.370059 426.076678 C52.583326 342.246159 84.441138 260.625314 123.419097 182.557671 C127.264302 174.856240 131.292541 166.399669 129.455132 157.990059 C127.617723 149.580448 116.622400 143.110045 110.121156 148.751982 C70.165214 183.426711 35.968785 224.722522 9.351121 270.442476 C7.116198 274.281303 5.290605 279.981607 8.965358 282.477138 C8.925352 284.959246 6.547452 287.152916 4.070173 286.993063 C-2.381169 283.926298 -0.040512 274.251574 3.402622 267.993004 C28.722958 221.968393 61.649930 180.140043 100.442007 144.720290 C104.684005 140.847063 109.208371 136.931724 114.753100 135.430919 C125.912362 132.410415 138.579497 142.178083 138.495290 153.738597 C153.559224 121.851914 173.809224 92.422250 198.207262 66.958189 C207.804877 56.941224 220.681927 46.782031 234.115668 50.244457 C248.708869 54.005724 254.688443 71.465389 255.874236 86.488788 C257.954569 112.845570 252.687928 139.243413 245.686877 164.738374 M117.573897 379.256859 C169.749693 318.145474 209.071789 246.111154 232.254475 169.173009 C240.844340 140.665173 247.284108 110.791517 243.629266 81.242834 C242.656044 73.374520 239.454132 64.013228 231.650144 62.614904 C227.945514 61.951110 224.189975 63.396237 220.882176 65.191607 C209.923548 71.139609 201.652714 80.963935 194.056513 90.851704 C175.791970 114.626163 159.800490 140.146054 146.371001 166.950293 C143.907168 171.867917 141.472321 177.087240 141.699479 182.582866 C144.435359 248.771264 132.039223 314.610564 117.573898 379.256859 M55.462901 532.592615 C96.514955 424.724160 129.646728 312.019838 131.503331 196.618677 C105.086603 247.736663 83.371326 301.162085 63.670274 355.224647 C39.915026 420.412511 18.854357 487.607710 15.718508 556.918141 C15.196239 568.461624 15.302492 580.582599 20.722244 590.788041 C21.447505 592.153706 22.561094 593.643404 24.106103 593.580261 C25.432803 593.526036 26.393692 592.339280 27.151678 591.249084 C39.577588 573.377115 47.720586 552.936338 55.462901 532.592615 z"/><path class="selected"  fill="#000000" opacity="1.000000" stroke="none" 
 	d="
M363.930652 391.393864 C362.725867 386.932110 363.928358 382.214739 365.127811 377.751549 C367.860848 367.581855 370.593885 357.412162 373.326922 347.242469 C363.208037 361.415388 353.089152 375.588307 342.970267 389.761227 C339.991564 393.933319 335.037817 398.631790 330.538848 396.174493 C326.239897 393.826444 327.154015 387.482932 328.673017 382.826008 C334.036266 366.383478 339.399515 349.940949 344.762763 333.498419 C330.102817 353.000599 315.442871 372.502778 300.782925 392.004958 C298.004706 395.700832 294.249300 399.818741 289.687037 399.067908 C282.551226 397.893534 282.744654 387.584839 284.854901 380.667772 C287.652767 371.496795 290.450633 362.325818 293.248499 353.154841 C281.736523 359.906635 276.097995 373.131679 269.019552 384.445739 C261.941109 395.759799 250.161673 406.768209 237.056019 404.247468 C227.375355 402.385489 220.309197 393.156646 218.605283 383.446914 C216.901370 373.737181 219.669517 363.752135 223.768766 354.786736 C228.077250 345.363723 233.884427 336.627834 240.905263 329.007856 C247.501406 321.848813 256.655078 315.266226 266.188113 317.236568 C278.821620 319.847733 283.694186 334.974238 286.236138 347.621853 C296.114472 337.747355 305.992805 327.872857 315.871139 317.998358 C317.637466 316.232717 319.737203 314.334696 322.228527 314.509927 C327.833024 314.904128 327.306744 323.359111 324.996361 328.480431 C321.020301 337.293976 317.044242 346.107521 313.068183 354.921066 C319.115534 347.448330 325.162885 339.975595 331.210237 332.502859 C336.814149 325.578083 345.306409 317.884954 353.387713 321.633138 C361.071980 325.197172 361.215234 335.897019 360.175026 344.303461 C365.083768 340.428888 367.990036 334.584815 372.252985 330.009301 C376.515934 325.433786 383.526848 322.131251 388.944277 325.255277 C395.689240 329.144842 394.631112 339.041793 392.669963 346.576854 C389.204558 359.891516 385.739153 373.206178 382.273748 386.520841 C397.388196 383.794253 409.653129 372.818883 419.573721 361.094435 C429.494313 349.369988 438.113972 336.296353 450.170420 326.782002 C453.454885 324.190066 457.431649 321.777693 461.558014 322.469756 C465.684379 323.161820 468.845828 328.641876 466.005071 331.713673 C472.815658 331.033758 477.227907 339.664120 475.779046 346.353453 C474.330184 353.042786 469.420488 358.347566 466.013406 364.283741 C461.631321 371.918666 459.689397 380.929961 460.537937 389.692080 C471.320073 381.048971 479.725454 369.470500 484.603633 356.541419 C488.089464 347.302602 490.812387 336.189028 499.818605 332.139979 C510.309498 327.423444 522.896232 335.494011 533.859953 332.015307 C537.972003 330.710585 542.647935 327.901145 546.135500 330.440464 C550.344796 333.505279 547.456461 340.078781 544.460810 344.337576 C533.261957 360.258501 524.443133 377.850487 518.387297 396.349593 C545.511206 385.784537 565.319950 362.442317 583.108728 339.401350 C585.456006 336.361032 587.973116 333.169196 591.560132 331.795674 C595.147148 330.422153 600.067369 331.776681 601.111732 335.472970 C601.899668 338.261691 600.292536 341.108188 598.750061 343.561467 C587.482596 361.482178 576.215130 379.402889 564.947665 397.323600 C578.437759 396.633604 589.784596 387.010254 598.384024 376.593509 C606.983452 366.176765 614.166714 354.311348 624.891349 346.099105 C632.374462 340.369012 645.747379 338.242389 649.167711 347.024887 C651.374063 340.625003 660.182603 340.548273 666.948108 340.781609 C673.713613 341.014945 682.821981 337.521189 681.434433 330.895390 C675.162446 333.765076 667.903856 336.657131 661.619067 333.815593 C655.334278 330.974054 654.397826 319.431806 661.211618 318.361691 C701.375180 312.053950 737.598528 284.594026 754.520164 247.627047 C755.333702 245.849794 756.120983 243.878317 755.612061 241.991131 C754.666492 238.484771 750.161775 237.587422 746.530319 237.552970 C726.019714 237.358386 706.006221 243.504225 686.693211 250.412946 C631.723534 270.076898 579.163370 296.466400 530.557761 328.805714 C528.083298 327.850868 529.807617 324.107734 531.802860 322.360249 C587.591162 273.499431 655.738844 238.864487 728.093150 222.598922 C742.291712 219.407022 760.313115 218.376385 768.135862 230.647979 C774.709873 240.960675 769.776028 254.621598 763.470951 265.100878 C750.160649 287.223107 731.080974 305.839977 708.638637 318.603155 C702.040602 322.355524 694.296601 326.802713 693.470476 334.348033 C689.761794 368.220890 666.212249 399.179668 634.558332 411.795304 C626.643458 414.949770 617.885267 417.032245 609.619805 414.963906 C601.354342 412.895568 593.927816 405.668266 593.982708 397.148121 C586.346597 405.248016 576.471521 412.798727 565.359816 412.129006 C554.248111 411.459286 544.322336 398.060597 550.666517 388.913472 C542.604871 396.698621 532.911501 402.786231 522.397704 406.666792 C516.637661 408.792780 509.518320 410.029485 504.893103 405.991506 C498.980869 400.829914 501.363815 391.252549 504.573054 384.090334 C510.324215 371.255186 517.229102 358.937263 525.177240 347.333644 C520.333627 339.918532 508.187235 341.819745 502.148092 348.298419 C496.108949 354.777093 494.077349 363.886042 490.759902 372.098168 C486.509633 382.619442 479.816863 392.145206 471.359506 399.710595 C466.953957 403.651505 461.832933 407.166289 455.982614 408.010916 C450.132295 408.855543 443.480766 406.361282 441.010373 400.991293 C436.749281 407.471682 428.292102 410.882172 420.727505 409.170677 C413.162907 407.459183 406.997499 400.740324 405.940994 393.056826 C398.997840 397.447768 391.717827 401.958321 383.540692 402.747140 C375.363558 403.535960 366.072232 399.324904 363.930652 391.393864 M640.213498 357.071464 C640.400990 355.214991 637.310233 355.668695 635.925207 356.919033 C625.472971 366.354831 617.688820 378.714796 613.694532 392.217729 C613.360794 393.345952 613.057522 394.583816 613.507675 395.670845 C614.468232 397.990400 617.776754 397.833872 620.203677 397.191184 C633.049388 393.789440 645.263366 388.017427 656.047140 380.252482 C654.744851 378.498943 652.056476 379.184397 649.895584 379.502835 C644.434613 380.307594 638.630272 377.072267 636.442763 372.004265 C634.255254 366.936263 635.882171 360.493372 640.213498 357.071464 M262.478042 360.513981 C255.805801 357.843361 250.428802 352.116696 248.183289 345.289640 C240.549985 355.239268 236.463740 367.854337 236.813697 380.389886 C236.890070 383.125617 237.424287 386.275884 239.793599 387.645709 C242.672223 389.309993 246.240561 387.291925 248.808233 385.179254 C255.471647 379.696620 261.193020 373.072063 265.647528 365.681682 C265.922164 365.226039 266.197788 364.751398 266.268034 364.224044 C266.520996 362.324989 264.256688 361.225897 262.478044 360.513977 M426.878164 392.763559 C438.187060 385.917625 443.654587 372.700931 448.407586 360.365334 C449.555884 357.385123 450.704182 354.404912 451.852479 351.424701 C452.437728 349.905788 453.033372 348.292665 452.751850 346.689431 C442.882692 357.655334 434.701075 370.137141 428.582730 383.561637 C427.260509 386.462773 426.010901 389.695545 426.878164 392.763559 M268.597700 349.261830 C271.020314 349.770095 273.227369 347.340010 273.549231 344.885668 C273.871093 342.431325 272.920339 340.016119 272.207179 337.645719 C271.261000 334.500811 266.997525 333.102674 264.137462 334.716899 C261.277398 336.331125 260.157485 340.226889 261.275850 343.314760 C262.394216 346.402631 265.383520 348.587493 268.597701 349.261828 M652.133263 365.741862 C657.512666 362.849542 662.721504 359.640033 667.723716 356.135555 C668.992363 355.246759 670.375209 353.560149 669.371294 352.380496 C663.295753 353.052482 657.484734 355.907226 653.239708 360.305358 C651.797320 361.799767 650.576051 364.367514 652.133263 365.741862 z"/></svg>